<?xml version="1.0" encoding="UTF-8" standalone="no"?>
<!DOCTYPE svg PUBLIC "-//W3C//DTD SVG 1.1//EN" "http://www.w3.org/Graphics/SVG/1.1/DTD/svg11.dtd">
<!-- Created with Vectornator (http://vectornator.io/) -->
<svg height="100%" stroke-miterlimit="10" style="fill-rule:nonzero;clip-rule:evenodd;stroke-linecap:round;stroke-linejoin:round;" version="1.1" viewBox="0 0 1000 1000" width="100%" xml:space="preserve" xmlns="http://www.w3.org/2000/svg" xmlns:vectornator="http://vectornator.io" xmlns:xlink="http://www.w3.org/1999/xlink">
<defs/>
<g id="Page-11" vectornator:layerName="Page-11">
<g opacity="1" vectornator:layerName="Group 1">
<path d="M561.925 552.653L686.002 473.148L810.079 393.658L810.079 703.87L686.002 783.376L561.925 862.865L561.925 552.653ZM686.002 850.771L862.693 737.592L862.693 292.541L686.002 405.737L681.343 408.725L509.325 518.948L509.325 963.982L681.343 853.759L686.002 850.771Z" fill="#000000" fill-opacity="0.8" fill-rule="evenodd" opacity="1" stroke="none" vectornator:layerName="path"/>
<path d="M438.075 862.865L313.998 783.376L189.921 703.87L189.921 393.658L313.998 473.148L438.075 552.653L438.075 862.865ZM313.998 405.736L137.307 292.541L137.307 737.592L313.998 850.787L318.657 853.759L490.675 963.982L490.675 518.948L318.657 408.724L313.998 405.736Z" fill="#000000" fill-opacity="0.8" fill-rule="evenodd" opacity="1" stroke="none" vectornator:layerName="path 1"/>
<path d="M242.521 268.384L499.993 103.429L500.007 103.429L757.479 268.384L500.007 433.339L499.993 433.339L242.521 268.384ZM500.007 500.751L681.343 384.567L862.693 268.384L681.343 152.201L500.007 36.0334L499.993 36.0176L318.657 152.201L137.307 268.384L318.657 384.567L499.993 500.751L500.007 500.751Z" fill="#000000" fill-opacity="0.8" fill-rule="evenodd" opacity="1" stroke="none" vectornator:layerName="path 2"/>
</g>
</g>
</svg>
