<?xml version="1.0" encoding="UTF-8" standalone="no"?>
<!DOCTYPE svg PUBLIC "-//W3C//DTD SVG 1.1//EN" "http://www.w3.org/Graphics/SVG/1.1/DTD/svg11.dtd">
<!-- Created with Vectornator (http://vectornator.io/) -->
<svg height="100%" stroke-miterlimit="10" style="fill-rule:nonzero;clip-rule:evenodd;stroke-linecap:round;stroke-linejoin:round;" version="1.1" viewBox="0 0 900 700" width="100%" xml:space="preserve" xmlns="http://www.w3.org/2000/svg" xmlns:vectornator="http://vectornator.io" xmlns:xlink="http://www.w3.org/1999/xlink">
<defs/>
<g id="Layer-1" vectornator:layerName="Layer 1">
<g opacity="1" vectornator:layerName="Layer-1">
<g opacity="1" vectornator:layerName="g">
<path d="M0 639.053L42.3179 545.016L59.5124 545.016L101.964 639.053L83.6924 639.053L47.2878 554.286L54.2733 554.286L18.0022 639.053L0 639.053ZM19.4793 617.291L24.18 603.587L74.9605 603.587L79.6636 617.291L19.4793 617.291Z" fill="#000000" fill-rule="nonzero" opacity="1" stroke="none" vectornator:layerName="path"/>
<path d="M157.983 639.053L126.816 545.016L144.951 545.016L172.76 630.052L163.761 630.052L192.642 545.016L208.764 545.016L236.839 630.052L228.108 630.052L256.588 545.016L273.246 545.016L242.081 639.053L223.54 639.053L197.883 562.346L202.717 562.346L176.657 639.053L157.983 639.053Z" fill="#000000" fill-rule="nonzero" opacity="1" stroke="none" vectornator:layerName="path"/>
<path d="M298.101 639.053L340.416 545.016L357.613 545.016L400.062 639.053L381.793 639.053L345.386 554.286L352.372 554.286L316.1 639.053L298.101 639.053ZM317.577 617.291L322.281 603.587L373.061 603.587L377.762 617.291L317.577 617.291Z" fill="#000000" fill-rule="nonzero" opacity="1" stroke="none" vectornator:layerName="path"/>
<path d="M438.887 639.053L438.887 545.016L477.577 545.016C485.906 545.016 493.048 546.359 499.005 549.047C504.961 551.732 509.55 555.584 512.773 560.6C515.999 565.615 517.61 571.571 517.61 578.466C517.61 585.363 515.999 591.296 512.773 596.266C509.55 601.238 504.961 605.043 499.005 607.685C493.048 610.327 485.906 611.649 477.577 611.649L448.56 611.649L456.351 603.723L456.351 639.053L438.887 639.053ZM500.415 639.053L476.635 604.931L495.309 604.931L519.223 639.053L500.415 639.053ZM456.351 605.603L448.56 597.273L476.771 597.273C484.474 597.273 490.273 595.617 494.168 592.303C498.064 588.989 500.013 584.377 500.013 578.466C500.013 572.467 498.064 567.854 494.168 564.628C490.273 561.405 484.474 559.794 476.771 559.794L448.56 559.794L456.351 551.196L456.351 605.603Z" fill="#000000" fill-rule="nonzero" opacity="1" stroke="none" vectornator:layerName="path"/>
<path d="M580.079 584.108L626.828 584.108L626.828 598.484L580.079 598.484L580.079 584.108ZM581.423 624.41L634.486 624.41L634.486 639.053L563.956 639.053L563.956 545.016L632.606 545.016L632.606 559.658L581.423 559.658L581.423 624.41Z" fill="#000000" fill-rule="nonzero" opacity="1" stroke="none" vectornator:layerName="path"/>
<path d="M684.594 639.053L684.594 545.016L721.806 545.016C731.749 545.016 740.48 547.031 748.002 551.06C755.526 555.091 761.37 560.645 765.535 567.718C769.699 574.794 771.782 582.9 771.782 592.034C771.782 601.169 769.699 609.274 765.535 616.35C761.37 623.426 755.526 628.977 748.002 633.008C740.48 637.04 731.749 639.053 721.806 639.053L684.594 639.053ZM691.446 632.875L721.268 632.875C730.136 632.875 737.838 631.129 744.376 627.633C750.913 624.141 755.974 619.328 759.555 613.193C763.138 607.058 764.93 600.006 764.93 592.034C764.93 584.065 763.138 577.01 759.555 570.875C755.974 564.74 750.913 559.928 744.376 556.435C737.838 552.942 730.136 551.196 721.268 551.196L691.446 551.196L691.446 632.875Z" fill="#000000" fill-rule="nonzero" opacity="1" stroke="none" vectornator:layerName="path"/>
<path d="M822.427 639.053L822.427 545.016L861.654 545.016C871.775 545.016 879.699 547.076 885.432 551.196C891.164 555.315 894.03 561.271 894.03 569.062C894.03 574.168 892.82 578.466 890.402 581.959C887.983 585.451 884.648 588.072 880.395 589.818C876.14 591.565 871.37 592.437 866.088 592.437L868.504 589.752C874.953 589.752 880.462 590.69 885.029 592.573C889.596 594.452 893.068 597.185 895.441 600.766C897.814 604.349 899 608.826 899 614.201C899 622.082 896.134 628.193 890.402 632.539C884.672 636.882 875.983 639.053 864.339 639.053L822.427 639.053ZM829.279 633.142L864.339 633.142C873.386 633.142 880.283 631.598 885.029 628.508C889.775 625.418 892.148 620.469 892.148 613.663C892.148 606.946 889.775 602.043 885.029 598.953C880.283 595.863 873.386 594.319 864.339 594.319L828.471 594.319L828.471 588.408L861.385 588.408C869.536 588.408 875.849 586.84 880.326 583.705C884.805 580.572 887.045 575.869 887.045 569.601C887.045 563.42 884.805 558.763 880.326 555.63C875.849 552.494 869.536 550.927 861.385 550.927L829.279 550.927L829.279 633.142Z" fill="#000000" fill-rule="nonzero" opacity="1" stroke="none" vectornator:layerName="path"/>
</g>
<g opacity="1" vectornator:layerName="g">
<path d="M85.5746 695.968L85.5746 674.433L94.6495 674.433C95.9289 674.433 97.1583 674.678 98.3424 675.167C99.5241 675.653 100.58 676.363 101.513 677.297C102.445 678.228 103.184 679.358 103.724 680.68C104.268 682.002 104.539 683.51 104.539 685.202C104.539 686.893 104.268 688.399 103.724 689.724C103.184 691.046 102.445 692.173 101.513 693.105C100.58 694.038 99.5241 694.748 98.3424 695.237C97.1583 695.725 95.9289 695.968 94.6495 695.968L85.5746 695.968ZM88.0143 693.66L94.5518 693.66C96.0909 693.66 97.4251 693.269 98.552 692.487C99.6813 691.706 100.553 690.677 101.17 689.397C101.79 688.118 102.1 686.719 102.1 685.202C102.1 683.66 101.79 682.252 101.17 680.973C100.553 679.693 99.6813 678.669 98.552 677.897C97.4251 677.127 96.0909 676.744 94.5518 676.744L88.0143 676.744L88.0143 693.66Z" fill="#000000" fill-rule="nonzero" opacity="1" stroke="none" vectornator:layerName="path"/>
<path d="M115.246 695.968L124.385 674.433L127.445 674.433L136.584 695.968L133.884 695.968L131.249 689.724L120.581 689.724L117.946 695.968L115.246 695.968ZM121.524 687.477L130.306 687.477L125.915 676.97L121.524 687.477Z" fill="#000000" fill-rule="nonzero" opacity="1" stroke="none" vectornator:layerName="path"/>
<path d="M152.497 695.968L152.497 676.744L144.982 676.744L144.982 674.433L162.451 674.433L162.451 676.744L154.936 676.744L154.936 695.968L152.497 695.968Z" fill="#000000" fill-rule="nonzero" opacity="1" stroke="none" vectornator:layerName="path"/>
<path d="M170.849 695.968L179.991 674.433L183.047 674.433L192.189 695.968L189.487 695.968L186.855 689.724L176.183 689.724L173.548 695.968L170.849 695.968ZM177.127 687.477L185.911 687.477L181.518 676.97L177.127 687.477Z" fill="#000000" fill-rule="nonzero" opacity="1" stroke="none" vectornator:layerName="path"/>
<path d="M221.377 695.968L221.377 674.433L224.207 674.433L231.917 684.649L239.496 674.433L242.326 674.433L242.326 695.968L239.887 695.968L239.887 678.142L231.917 688.39L223.817 678.142L223.817 695.968L221.377 695.968Z" fill="#000000" fill-rule="nonzero" opacity="1" stroke="none" vectornator:layerName="path"/>
<path d="M266.923 696.228C265.298 696.228 263.812 695.947 262.468 695.382C261.122 694.82 259.969 694.027 259.004 693.009C258.039 691.99 257.296 690.813 256.774 689.478C256.254 688.144 255.995 686.719 255.995 685.202C255.995 683.66 256.254 682.231 256.774 680.906C257.296 679.584 258.039 678.414 259.004 677.394C259.969 676.375 261.122 675.584 262.468 675.019C263.812 674.454 265.298 674.173 266.923 674.173C268.55 674.173 270.037 674.454 271.381 675.019C272.725 675.584 273.88 676.375 274.845 677.394C275.81 678.414 276.553 679.584 277.073 680.906C277.594 682.231 277.854 683.66 277.854 685.202C277.854 686.719 277.594 688.144 277.073 689.478C276.553 690.813 275.81 691.99 274.845 693.009C273.88 694.027 272.725 694.82 271.381 695.382C270.037 695.947 268.55 696.228 266.923 696.228ZM266.923 693.855C268.681 693.855 270.192 693.469 271.462 692.7C272.729 691.93 273.706 690.889 274.39 689.576C275.074 688.263 275.414 686.805 275.414 685.202C275.414 683.575 275.074 682.112 274.39 680.808C273.706 679.508 272.729 678.474 271.462 677.704C270.192 676.932 268.681 676.549 266.923 676.549C265.189 676.549 263.683 676.932 262.401 677.704C261.122 678.474 260.143 679.508 259.459 680.808C258.775 682.112 258.434 683.575 258.434 685.202C258.434 686.805 258.775 688.263 259.459 689.576C260.143 690.889 261.122 691.93 262.401 692.7C263.683 693.469 265.189 693.855 266.923 693.855Z" fill="#000000" fill-rule="nonzero" opacity="1" stroke="none" vectornator:layerName="path"/>
<path d="M291.522 695.968L291.522 674.433L300.597 674.433C301.877 674.433 303.106 674.678 304.29 675.167C305.472 675.653 306.527 676.363 307.461 677.297C308.393 678.228 309.132 679.358 309.672 680.68C310.216 682.002 310.487 683.51 310.487 685.202C310.487 686.893 310.216 688.399 309.672 689.724C309.132 691.046 308.393 692.173 307.461 693.105C306.527 694.038 305.472 694.748 304.29 695.237C303.106 695.725 301.877 695.968 300.597 695.968L291.522 695.968ZM293.962 693.66L300.5 693.66C302.039 693.66 303.373 693.269 304.5 692.487C305.629 691.706 306.501 690.677 307.118 689.397C307.738 688.118 308.048 686.719 308.048 685.202C308.048 683.66 307.738 682.252 307.118 680.973C306.501 679.693 305.629 678.669 304.5 677.897C303.373 677.127 302.039 676.744 300.5 676.744L293.962 676.744L293.962 693.66Z" fill="#000000" fill-rule="nonzero" opacity="1" stroke="none" vectornator:layerName="path"/>
<path d="M333.035 696.228C331.255 696.228 329.678 695.832 328.301 695.042C326.924 694.251 325.845 693.138 325.063 691.706C324.284 690.277 323.893 688.606 323.893 686.698L323.893 674.433L326.333 674.433L326.333 686.762C326.333 688.432 326.652 689.788 327.293 690.829C327.932 691.87 328.768 692.635 329.797 693.121C330.827 693.61 331.906 693.855 333.035 693.855C334.184 693.855 335.268 693.61 336.287 693.121C337.307 692.635 338.141 691.87 338.791 690.829C339.442 689.788 339.768 688.432 339.768 686.762L339.768 674.433L342.208 674.433L342.208 686.698C342.208 688.585 341.817 690.243 341.036 691.675C340.256 693.105 339.177 694.222 337.8 695.025C336.423 695.828 334.834 696.228 333.035 696.228Z" fill="#000000" fill-rule="nonzero" opacity="1" stroke="none" vectornator:layerName="path"/>
<path d="M356.982 695.968L356.982 674.433L359.421 674.433L359.421 693.626L371.165 693.626L371.165 695.968L356.982 695.968Z" fill="#000000" fill-rule="nonzero" opacity="1" stroke="none" vectornator:layerName="path"/>
<path d="M381.545 695.968L390.687 674.433L393.744 674.433L402.885 695.968L400.186 695.968L397.551 689.724L386.882 689.724L384.247 695.968L381.545 695.968ZM387.823 687.477L396.607 687.477L392.216 676.97L387.823 687.477Z" fill="#000000" fill-rule="nonzero" opacity="1" stroke="none" vectornator:layerName="path"/>
<path d="M415.381 695.968L415.381 674.433L425.693 674.433C427.906 674.433 429.667 675.04 430.98 676.256C432.292 677.471 432.948 679.107 432.948 681.168C432.948 682.555 432.683 683.66 432.152 684.485C431.621 685.309 430.953 685.933 430.151 686.355C429.348 686.779 428.545 687.089 427.744 687.282L433.403 695.968L430.508 695.968L425.305 687.706L417.821 687.706L417.821 695.968L415.381 695.968ZM417.821 685.397L425.271 685.397C426.053 685.397 426.844 685.278 427.647 685.037C428.447 684.799 429.126 684.37 429.679 683.753C430.232 683.136 430.508 682.274 430.508 681.168C430.508 679.801 430.041 678.721 429.109 677.93C428.178 677.139 426.941 676.744 425.4 676.744L417.821 676.744L417.821 685.397Z" fill="#000000" fill-rule="nonzero" opacity="1" stroke="none" vectornator:layerName="path"/>
<path d="M446.909 674.433L449.349 674.433L449.349 674.433L449.349 695.968L449.349 695.968L446.909 695.968L446.909 695.968L446.909 674.433L446.909 674.433Z" fill="#000000" fill-rule="nonzero" opacity="1" stroke="none" vectornator:layerName="rect"/>
<path d="M469.717 695.968L469.717 676.744L462.202 676.744L462.202 674.433L479.671 674.433L479.671 676.744L472.156 676.744L472.156 695.968L469.717 695.968Z" fill="#000000" fill-rule="nonzero" opacity="1" stroke="none" vectornator:layerName="path"/>
<path d="M499.031 695.968L499.031 687.446L489.987 674.433L492.948 674.433L500.234 684.909L507.52 674.433L510.481 674.433L501.471 687.446L501.471 695.968L499.031 695.968Z" fill="#000000" fill-rule="nonzero" opacity="1" stroke="none" vectornator:layerName="path"/>
<path d="M518.255 699.58L520.142 692.649L523.33 692.649L520.469 699.58L518.255 699.58Z" fill="#000000" fill-rule="nonzero" opacity="1" stroke="none" vectornator:layerName="path"/>
<path d="M561.85 696.228C559.725 696.228 558.003 695.942 556.68 695.366C555.356 694.791 554.364 693.996 553.702 692.976C553.042 691.956 552.656 690.808 552.549 689.528L555.086 689.528C555.151 690.57 555.496 691.408 556.125 692.049C556.754 692.688 557.586 693.159 558.615 693.464C559.644 693.767 560.778 693.919 562.015 693.919C563.835 693.919 565.279 693.6 566.341 692.959C567.404 692.321 567.935 691.37 567.935 690.112C567.935 689.354 567.668 688.742 567.137 688.275C566.606 687.808 565.901 687.425 565.024 687.12C564.145 686.817 563.184 686.541 562.143 686.291C561.102 686.04 560.056 685.776 559.006 685.495C557.953 685.211 556.988 684.854 556.111 684.42C555.232 683.987 554.526 683.429 553.995 682.745C553.464 682.062 553.199 681.19 553.199 680.127C553.199 678.369 553.876 676.939 555.232 675.831C556.587 674.726 558.61 674.173 561.298 674.173C563.206 674.173 564.778 674.461 566.015 675.036C567.251 675.61 568.178 676.363 568.798 677.297C569.415 678.228 569.755 679.236 569.822 680.322L567.316 680.322C567.187 679.236 566.644 678.321 565.691 677.573C564.735 676.825 563.273 676.451 561.298 676.451C560.085 676.451 559.096 676.57 558.338 676.808C557.578 677.046 557 677.356 556.597 677.735C556.197 678.114 555.925 678.512 555.784 678.924C555.644 679.334 555.572 679.724 555.572 680.094C555.572 680.808 555.839 681.39 556.371 681.835C556.902 682.278 557.607 682.648 558.484 682.941C559.363 683.234 560.333 683.498 561.395 683.737C562.458 683.975 563.516 684.242 564.569 684.535C565.619 684.828 566.584 685.195 567.463 685.64C568.34 686.086 569.045 686.655 569.577 687.348C570.108 688.042 570.375 688.93 570.375 690.014C570.375 692.011 569.615 693.545 568.097 694.617C566.58 695.692 564.497 696.228 561.85 696.228Z" fill="#000000" fill-rule="nonzero" opacity="1" stroke="none" vectornator:layerName="path"/>
<path d="M583.91 674.433L586.35 674.433L586.35 674.433L586.35 695.968L586.35 695.968L583.91 695.968L583.91 695.968L583.91 674.433L583.91 674.433Z" fill="#000000" fill-rule="nonzero" opacity="1" stroke="none" vectornator:layerName="rect"/>
<path d="M601.381 695.968L601.381 674.433L604.211 674.433L611.921 684.649L619.5 674.433L622.33 674.433L622.33 695.968L619.89 695.968L619.89 678.142L611.921 688.39L603.82 678.142L603.82 695.968L601.381 695.968Z" fill="#000000" fill-rule="nonzero" opacity="1" stroke="none" vectornator:layerName="path"/>
<path d="M637.361 695.968L637.361 674.433L647.056 674.433C649.355 674.433 651.165 675.057 652.488 676.303C653.81 677.552 654.472 679.236 654.472 681.364C654.472 683.489 653.81 685.173 652.488 686.422C651.165 687.668 649.355 688.292 647.056 688.292L639.801 688.292L639.801 695.968L637.361 695.968ZM639.801 686.014L646.894 686.014C648.585 686.014 649.865 685.602 650.732 684.778C651.599 683.953 652.033 682.815 652.033 681.364C652.033 679.932 651.599 678.802 650.732 677.98C649.865 677.156 648.585 676.744 646.894 676.744L639.801 676.744L639.801 686.014Z" fill="#000000" fill-rule="nonzero" opacity="1" stroke="none" vectornator:layerName="path"/>
<path d="M667.552 695.968L667.552 674.433L669.992 674.433L669.992 693.626L681.735 693.626L681.735 695.968L667.552 695.968Z" fill="#000000" fill-rule="nonzero" opacity="1" stroke="none" vectornator:layerName="path"/>
<path d="M694.653 674.433L697.093 674.433L697.093 674.433L697.093 695.968L697.093 695.968L694.653 695.968L694.653 695.968L694.653 674.433L694.653 674.433Z" fill="#000000" fill-rule="nonzero" opacity="1" stroke="none" vectornator:layerName="rect"/>
<path d="M712.124 695.968L712.124 674.433L727.672 674.433L727.672 676.775L714.564 676.775L714.564 684.258L726.243 684.258L726.243 686.631L714.564 686.631L714.564 695.968L712.124 695.968Z" fill="#000000" fill-rule="nonzero" opacity="1" stroke="none" vectornator:layerName="path"/>
<path d="M740.85 674.433L743.289 674.433L743.289 674.433L743.289 695.968L743.289 695.968L740.85 695.968L740.85 695.968L740.85 674.433L740.85 674.433Z" fill="#000000" fill-rule="nonzero" opacity="1" stroke="none" vectornator:layerName="rect"/>
<path d="M758.323 695.968L758.323 674.433L774.164 674.433L774.164 676.775L760.763 676.775L760.763 683.996L772.732 683.996L772.732 686.372L760.763 686.372L760.763 693.626L774.164 693.626L774.164 695.968L758.323 695.968Z" fill="#000000" fill-rule="nonzero" opacity="1" stroke="none" vectornator:layerName="path"/>
<path d="M787.861 695.968L787.861 674.433L796.939 674.433C798.218 674.433 799.447 674.678 800.629 675.167C801.811 675.653 802.869 676.363 803.8 677.297C804.734 678.228 805.47 679.358 806.013 680.68C806.554 682.002 806.826 683.51 806.826 685.202C806.826 686.893 806.554 688.399 806.013 689.724C805.47 691.046 804.734 692.173 803.8 693.105C802.869 694.038 801.811 694.748 800.629 695.237C799.447 695.725 798.218 695.968 796.939 695.968L787.861 695.968ZM790.301 693.66L796.841 693.66C798.38 693.66 799.714 693.269 800.841 692.487C801.968 691.706 802.842 690.677 803.459 689.397C804.079 688.118 804.386 686.719 804.386 685.202C804.386 683.66 804.079 682.252 803.459 680.973C802.842 679.693 801.968 678.669 800.841 677.897C799.714 677.127 798.38 676.744 796.841 676.744L790.301 676.744L790.301 693.66Z" fill="#000000" fill-rule="nonzero" opacity="1" stroke="none" vectornator:layerName="path"/>
<path d="M819.255 692.649L822.41 692.649L822.41 692.649L822.41 695.968L822.41 695.968L819.255 695.968L819.255 695.968L819.255 692.649L819.255 692.649Z" fill="#000000" fill-rule="nonzero" opacity="1" stroke="none" vectornator:layerName="rect"/>
</g>
<path d="M637.714 275.741L643.036 272.667L646.51 274.671L646.51 135.85L559.156 85.415L522.749 64.3966L522.749 74.5555L637.714 140.93L637.714 275.741Z" fill="#000000" fill-rule="evenodd" opacity="1" stroke="none" vectornator:layerName="path"/>
<path d="M593.485 358.039L549.561 383.401L549.561 393.555L559.158 388.016L601.455 363.598L593.485 358.997L593.485 358.039Z" fill="#000000" fill-rule="evenodd" opacity="1" stroke="none" vectornator:layerName="path"/>
<path d="M420.859 74.5555L420.859 64.3966L396.262 78.5962L405.063 83.6757L420.859 74.5555Z" fill="#000000" fill-rule="evenodd" opacity="1" stroke="none" vectornator:layerName="path"/>
<path d="M299.613 230.976L263.64 210.206L227.669 189.437L227.669 108.132L263.64 128.9L299.613 149.671L299.613 230.976ZM308.41 144.592L264.822 119.425L263.64 118.744L218.871 92.8937L218.871 194.517L263.64 220.364L264.822 221.046L308.41 246.215L308.41 144.592Z" fill="#000000" fill-rule="evenodd" opacity="1" stroke="none" vectornator:layerName="path"/>
<path d="M393.875 108.132L393.875 189.437L357.901 210.205L321.928 230.976L321.928 149.671L357.901 128.9L393.875 108.132ZM313.129 144.591L313.129 246.215L356.722 221.046L357.901 220.364L402.671 194.517L402.671 92.8936L357.901 118.744L356.722 119.425L313.129 144.591Z" fill="#000000" fill-rule="evenodd" opacity="1" stroke="none" vectornator:layerName="path"/>
<path d="M310.773 44.4765L385.078 87.3781L310.773 130.277L236.468 87.3781L310.773 44.4765ZM310.773 140.436L356.724 113.907L402.673 87.3781L356.724 60.849L310.773 34.3175L264.822 60.849L218.871 87.3781L310.773 140.436Z" fill="#000000" fill-rule="evenodd" opacity="1" stroke="none" vectornator:layerName="path"/>
<path d="M633.08 366.621L619.881 359L606.679 351.38L606.679 321.766L619.881 329.388L633.08 337.009L633.08 366.621ZM619.881 319.229L597.883 306.528L597.883 356.458L619.881 369.159L620.46 369.495L641.878 381.86L641.878 331.93L620.46 319.565L619.881 319.229Z" fill="#000000" fill-rule="evenodd" opacity="1" stroke="none" vectornator:layerName="path"/>
<path d="M679.396 351.378L666.197 358.997L652.995 366.619L652.995 337.007L666.197 329.388L679.396 321.766L679.396 351.378ZM665.615 319.562L644.199 331.927L644.199 381.857L665.615 369.495L666.197 369.156L688.192 356.458L688.192 306.528L666.197 319.226L665.615 319.562Z" fill="#000000" fill-rule="evenodd" opacity="1" stroke="none" vectornator:layerName="path"/>
<path d="M643.036 319.727L615.478 303.816L643.036 287.906L670.595 303.816L643.036 319.727ZM688.192 303.816L665.615 290.782L643.036 277.747L643.036 277.745L620.46 290.782L597.883 303.816L643.036 329.886L665.615 316.851L688.192 303.816Z" fill="#000000" fill-rule="evenodd" opacity="1" stroke="none" vectornator:layerName="path"/>
<path d="M461.121 479.597L434.182 464.046L407.24 448.489L407.24 387.69L434.182 403.243L461.121 418.796L461.121 479.597ZM434.182 393.081L398.444 372.451L398.444 453.571L434.182 474.201L435.123 474.746L469.917 494.835L469.917 413.718L435.123 393.629L434.182 393.081Z" fill="#000000" fill-rule="evenodd" opacity="1" stroke="none" vectornator:layerName="path"/>
<path d="M536.365 448.489L509.426 464.044L482.487 479.597L482.487 418.796L509.426 403.243L536.365 387.687L536.365 448.489ZM508.482 393.629L473.688 413.716L473.688 494.833L508.482 474.746L509.426 474.201L545.161 453.571L545.161 372.451L509.426 393.081L508.482 393.629Z" fill="#000000" fill-rule="evenodd" opacity="1" stroke="none" vectornator:layerName="path"/>
<path d="M471.804 400.241L471.804 400.243L416.039 368.046L471.804 335.851L471.804 335.854L527.566 368.046L471.804 400.241ZM471.804 325.695L471.804 325.692L435.123 346.87L398.444 368.046L435.123 389.224L471.804 410.402L471.804 410.4L508.482 389.224L545.161 368.046L471.804 325.695Z" fill="#000000" fill-rule="evenodd" opacity="1" stroke="none" vectornator:layerName="path"/>
<path d="M434.055 44.9053L461.812 60.93L461.812 92.0836L447.933 84.0688L434.055 76.0589L434.055 44.9053ZM448.531 94.5757L470.61 107.322L470.61 55.8505L448.531 43.1042L447.933 42.7587L425.257 29.6669L425.257 81.1384L447.933 94.2302L448.531 94.5757Z" fill="#000000" fill-rule="evenodd" opacity="1" stroke="none" vectornator:layerName="path"/>
<path d="M481.796 60.9325L509.552 44.9078L509.552 76.0613L495.674 84.0713L481.796 92.086L481.796 60.9325ZM495.674 94.2326L518.351 81.1408L518.351 29.6693L495.674 42.7611L495.076 43.1066L473 55.853L473 107.324L495.076 94.5781L495.674 94.2326Z" fill="#000000" fill-rule="evenodd" opacity="1" stroke="none" vectornator:layerName="path"/>
<path d="M471.804 10.159L500.756 26.8746L471.804 43.5878L471.804 43.5902L442.852 26.8746L471.804 10.159ZM471.804 53.7492L471.804 53.7468L495.078 40.3119L518.353 26.8746L471.804 0L448.529 13.4373L425.257 26.8746L448.529 40.3119L471.804 53.7492Z" fill="#000000" fill-rule="evenodd" opacity="1" stroke="none" vectornator:layerName="path"/>
<path d="M468.602 111.244L467.406 110.553L467.406 164.254L471.804 161.717L476.202 164.254L476.202 110.553L475.008 111.244L471.804 113.092L468.602 111.244Z" fill="#000000" fill-rule="evenodd" opacity="1" stroke="none" vectornator:layerName="path"/>
<path d="M593.485 312.743L593.485 302.613L536.855 270.28L536.855 275.059L532.195 277.752L593.485 312.743Z" fill="#000000" fill-rule="evenodd" opacity="1" stroke="none" vectornator:layerName="path"/>
<path d="M411.093 277.566L406.754 275.062L406.754 269.913L305.896 327.498L305.896 249.838L297.098 244.759L297.098 337.583L384.452 388.016L394.049 393.558L394.049 383.401L310.356 335.082L411.093 277.566Z" fill="#000000" fill-rule="evenodd" opacity="1" stroke="none" vectornator:layerName="path"/>
<path d="M482.161 244.652L502.91 232.67L523.659 220.691L523.659 267.44L502.91 279.422L482.161 291.401L482.161 244.652ZM502.91 289.578L532.457 272.522L532.457 205.452L502.91 222.511L502.131 222.961L473.364 239.572L473.364 306.64L502.131 290.029L502.91 289.578Z" fill="#000000" fill-rule="evenodd" opacity="1" stroke="none" vectornator:layerName="path"/>
<path d="M461.449 291.401L440.7 279.422L419.951 267.44L419.951 220.691L440.7 232.67L461.449 244.652L461.449 291.401ZM440.7 222.511L411.153 205.452L411.153 272.522L440.7 289.581L441.479 290.029L470.246 306.639L470.246 239.572L441.479 222.961L440.7 222.511Z" fill="#000000" fill-rule="evenodd" opacity="1" stroke="none" vectornator:layerName="path"/>
<path d="M428.747 201.812L471.804 176.953L471.806 176.953L514.863 201.812L471.806 226.671L471.804 226.671L428.747 201.812ZM471.806 236.83L502.131 219.321L532.457 201.812L502.131 184.303L471.806 166.796L471.804 166.794L441.479 184.303L411.152 201.812L441.479 219.321L471.804 236.83L471.806 236.83Z" fill="#000000" fill-rule="evenodd" opacity="1" stroke="none" vectornator:layerName="path"/>
</g>
</g>
</svg>
